<?xml version="1.0" encoding="UTF-8"?>
<svg xmlns="http://www.w3.org/2000/svg" xmlns:xlink="http://www.w3.org/1999/xlink" width="552.27pt" height="149.07pt" viewBox="0 0 552.27 149.07" version="1.1">
<defs>
<clipPath id="clip1">
  <path d="M 479 47 L 552.269531 47 L 552.269531 124 L 479 124 Z M 479 47 "/>
</clipPath>
<clipPath id="clip2">
  <path d="M 230 48 L 307 48 L 307 149.070313 L 230 149.070313 Z M 230 48 "/>
</clipPath>
</defs>
<g id="surface1">
<path style=" stroke:none;fill-rule:nonzero;fill:rgb(98.799133%,76.499939%,5.499268%);fill-opacity:1;" d="M 324.722656 15.339844 C 332.097656 15.339844 338.257813 20.238281 338.257813 27.609375 C 338.257813 34.964844 332.097656 41.09375 324.722656 41.09375 C 318.566406 41.09375 312.421875 34.964844 312.421875 27.609375 C 312.421875 20.238281 318.566406 15.339844 324.722656 15.339844 "/>
<g clip-path="url(#clip1)" clip-rule="nonzero">
<path style=" stroke:none;fill-rule:nonzero;fill:rgb(98.799133%,76.499939%,5.499268%);fill-opacity:1;" d="M 501.84375 85.261719 C 501.84375 96.304688 509.21875 103.675781 517.824219 103.675781 C 526.445313 103.675781 530.128906 98.761719 532.589844 93.859375 C 532.589844 93.859375 533.820313 92.632813 535.054688 92.632813 C 551.035156 97.53125 551.035156 97.53125 551.035156 97.53125 C 552.265625 98.761719 552.265625 98.761719 552.265625 99.988281 C 548.585938 112.257813 536.285156 123.300781 517.824219 123.300781 C 496.917969 123.300781 479.703125 107.34375 479.703125 85.261719 C 479.703125 63.175781 496.917969 47.234375 517.824219 47.234375 C 536.285156 47.234375 547.355469 58.277344 551.035156 70.546875 C 552.265625 71.777344 551.035156 73.003906 549.804688 73.003906 C 533.820313 77.90625 533.820313 77.90625 533.820313 77.90625 C 533.820313 77.90625 532.589844 77.90625 531.359375 76.675781 C 530.128906 71.777344 525.214844 68.089844 517.824219 68.089844 C 509.21875 68.089844 501.84375 74.21875 501.84375 85.261719 "/>
</g>
<path style=" stroke:none;fill-rule:nonzero;fill:rgb(98.799133%,76.499939%,5.499268%);fill-opacity:1;" d="M 435.421875 103.675781 C 426.816406 103.675781 419.425781 97.53125 419.425781 85.261719 C 419.425781 73.003906 426.816406 68.089844 435.421875 68.089844 C 444.03125 68.089844 451.40625 73.003906 451.40625 85.261719 C 451.40625 97.53125 444.03125 103.675781 435.421875 103.675781 M 435.421875 47.234375 C 414.515625 47.234375 397.289063 63.175781 397.289063 85.261719 C 397.289063 107.34375 414.515625 123.300781 435.421875 123.300781 C 456.332031 123.300781 473.546875 107.34375 473.546875 85.261719 C 473.546875 63.175781 456.332031 47.234375 435.421875 47.234375 "/>
<path style=" stroke:none;fill-rule:nonzero;fill:rgb(98.799133%,76.499939%,5.499268%);fill-opacity:1;" d="M 393.605469 69.320313 C 393.605469 70.546875 392.375 70.546875 392.375 70.546875 C 389.910156 70.546875 388.679688 70.546875 387.449219 70.546875 C 378.84375 70.546875 371.464844 75.449219 371.464844 90.175781 C 371.464844 119.613281 371.464844 119.613281 371.464844 119.613281 C 371.464844 120.84375 370.234375 120.84375 369.003906 120.84375 C 350.542969 120.84375 350.542969 120.84375 350.542969 120.84375 C 349.328125 120.84375 349.328125 120.84375 349.328125 119.613281 C 349.328125 52.136719 349.328125 52.136719 349.328125 52.136719 C 349.328125 50.921875 349.328125 49.691406 350.542969 49.691406 C 367.773438 49.691406 367.773438 49.691406 367.773438 49.691406 C 369.003906 49.691406 370.234375 50.921875 370.234375 52.136719 C 370.234375 59.503906 370.234375 59.503906 370.234375 59.503906 C 373.914063 50.921875 382.535156 48.464844 388.679688 48.464844 C 389.910156 48.464844 393.605469 49.691406 394.824219 49.691406 C 396.054688 49.691406 397.289063 50.921875 396.054688 52.136719 L 393.605469 69.320313 "/>
<path style=" stroke:none;fill-rule:nonzero;fill:rgb(98.799133%,76.499939%,5.499268%);fill-opacity:1;" d="M 314.886719 119.613281 C 314.886719 52.136719 314.886719 52.136719 314.886719 52.136719 C 314.886719 50.921875 314.886719 49.691406 316.117188 49.691406 C 334.5625 49.691406 334.5625 49.691406 334.5625 49.691406 C 335.792969 49.691406 335.792969 50.921875 335.792969 52.136719 C 335.792969 119.613281 335.792969 119.613281 335.792969 119.613281 C 335.792969 120.84375 335.792969 120.84375 334.5625 120.84375 C 316.117188 120.84375 316.117188 120.84375 316.117188 120.84375 C 314.886719 120.84375 314.886719 120.84375 314.886719 119.613281 "/>
<g clip-path="url(#clip2)" clip-rule="nonzero">
<path style=" stroke:none;fill-rule:nonzero;fill:rgb(98.799133%,76.499939%,5.499268%);fill-opacity:1;" d="M 268.140625 103.675781 C 259.535156 103.675781 252.144531 97.53125 252.144531 85.261719 C 252.144531 73.003906 259.535156 68.089844 268.140625 68.089844 C 276.75 68.089844 284.125 73.003906 284.125 85.261719 C 284.125 97.53125 276.75 103.675781 268.140625 103.675781 M 273.054688 48.464844 C 261.984375 48.464844 254.609375 52.136719 250.914063 57.050781 C 250.914063 52.136719 250.914063 52.136719 250.914063 52.136719 C 250.914063 50.921875 250.914063 49.691406 249.695313 49.691406 C 232.46875 49.691406 232.46875 49.691406 232.46875 49.691406 C 231.238281 49.691406 230.007813 50.921875 230.007813 52.136719 C 230.007813 146.613281 230.007813 146.613281 230.007813 146.613281 C 230.007813 147.84375 231.238281 149.070313 232.46875 149.070313 C 249.695313 149.070313 249.695313 149.070313 249.695313 149.070313 C 250.914063 149.070313 252.144531 147.84375 252.144531 146.613281 C 252.144531 115.945313 252.144531 115.945313 252.144531 115.945313 C 255.839844 119.613281 261.984375 123.300781 271.835938 123.300781 C 291.511719 123.300781 306.265625 107.34375 306.265625 85.261719 C 306.265625 63.175781 293.976563 48.464844 273.054688 48.464844 "/>
</g>
<path style=" stroke:none;fill-rule:nonzero;fill:rgb(98.799133%,76.499939%,5.499268%);fill-opacity:1;" d="M 156.210938 119.613281 C 156.210938 21.464844 156.210938 21.464844 156.210938 21.464844 C 156.210938 20.238281 156.210938 19.007813 157.441406 19.007813 C 218.933594 19.007813 218.933594 19.007813 218.933594 19.007813 C 220.167969 19.007813 220.167969 20.238281 220.167969 21.464844 C 220.167969 38.648438 220.167969 38.648438 220.167969 38.648438 C 220.167969 39.878906 220.167969 41.09375 218.933594 41.09375 C 180.8125 41.09375 180.8125 41.09375 180.8125 41.09375 C 179.582031 41.09375 178.351563 41.09375 178.351563 42.320313 C 178.351563 58.277344 178.351563 58.277344 178.351563 58.277344 C 178.351563 59.503906 179.582031 59.503906 180.8125 59.503906 C 215.253906 59.503906 215.253906 59.503906 215.253906 59.503906 C 215.253906 59.503906 216.488281 60.734375 216.488281 61.960938 C 216.488281 77.90625 216.488281 77.90625 216.488281 77.90625 C 216.488281 79.132813 215.253906 80.363281 215.253906 80.363281 C 180.8125 80.363281 180.8125 80.363281 180.8125 80.363281 C 179.582031 80.363281 178.351563 80.363281 178.351563 81.589844 C 178.351563 97.53125 178.351563 97.53125 178.351563 97.53125 C 178.351563 98.761719 179.582031 99.988281 180.8125 99.988281 C 218.933594 99.988281 218.933594 99.988281 218.933594 99.988281 C 220.167969 99.988281 220.167969 99.988281 220.167969 101.21875 C 220.167969 119.613281 220.167969 119.613281 220.167969 119.613281 C 220.167969 120.84375 220.167969 120.84375 218.933594 120.84375 C 157.441406 120.84375 157.441406 120.84375 157.441406 120.84375 C 156.210938 120.84375 156.210938 120.84375 156.210938 119.613281 "/>
<path style=" stroke:none;fill-rule:nonzero;fill:rgb(98.799133%,76.499939%,5.499268%);fill-opacity:1;" d="M 121.769531 57.050781 C 121.769531 38.648438 121.769531 38.648438 121.769531 38.648438 C 121.769531 34.964844 119.308594 32.507813 116.851563 30.050781 C 99.628906 20.238281 82.410156 10.425781 66.421875 1.839844 C 62.730469 -0.617188 59.039063 -0.617188 55.351563 1.839844 C 39.359375 10.425781 22.140625 20.238281 6.148438 30.050781 C 2.460938 32.507813 0 34.964844 0 38.648438 C 0 97.53125 0 97.53125 0 97.53125 C 0 101.21875 2.460938 103.675781 6.148438 106.132813 C 22.140625 115.945313 39.359375 125.757813 55.351563 134.34375 C 59.039063 136.800781 62.730469 136.800781 66.421875 134.34375 C 82.410156 125.757813 99.628906 115.945313 116.851563 106.132813 C 119.308594 103.675781 121.769531 101.21875 121.769531 97.53125 C 121.769531 70.546875 121.769531 70.546875 121.769531 70.546875 C 100.859375 82.820313 81.179688 95.089844 61.5 107.34375 C 49.199219 99.988281 38.128906 93.859375 27.058594 87.71875 C 27.058594 48.464844 27.058594 48.464844 27.058594 48.464844 C 36.898438 42.320313 47.96875 37.421875 57.808594 31.277344 C 60.269531 30.050781 62.730469 30.050781 63.960938 31.277344 C 75.03125 37.421875 84.871094 43.550781 94.710938 48.464844 C 83.640625 54.59375 73.800781 60.734375 63.960938 66.863281 C 61.5 68.089844 59.039063 68.089844 56.582031 66.863281 C 49.199219 61.960938 41.820313 58.277344 34.441406 53.363281 C 34.441406 84.046875 34.441406 84.046875 34.441406 84.046875 C 43.050781 88.945313 51.660156 93.859375 60.269531 97.53125 C 78.71875 87.71875 97.167969 76.675781 116.851563 65.632813 C 119.308594 64.40625 121.769531 60.734375 121.769531 57.050781 "/>
</g>
</svg>
